<?xml version="1.0" encoding="UTF-8"?>
<svg xmlns="http://www.w3.org/2000/svg" viewBox="0 0 1024 436" width="1024" height="436">
  <defs>
    <linearGradient id="bg" x1="0" y1="0" x2="1" y2="1">
      <stop offset="0%" stop-color="#0f172a"/>
      <stop offset="50%" stop-color="#1e1b4b"/>
      <stop offset="100%" stop-color="#0f172a"/>
    </linearGradient>
  </defs>
  <rect width="1024" height="436" fill="url(#bg)"/>
  
  <!-- Decorative candlesticks left -->
  <rect x="120" y="180" width="12" height="120" rx="2" fill="#2dd4bf" opacity="0.6"/>
  <rect x="115" y="200" width="22" height="4" rx="1" fill="#2dd4bf" opacity="0.6"/>
  <rect x="160" y="140" width="12" height="160" rx="2" fill="#f472b6" opacity="0.5"/>
  <rect x="155" y="180" width="22" height="4" rx="1" fill="#f472b6" opacity="0.5"/>
  <rect x="200" y="200" width="12" height="100" rx="2" fill="#2dd4bf" opacity="0.4"/>
  <rect x="195" y="220" width="22" height="4" rx="1" fill="#2dd4bf" opacity="0.4"/>
  
  <!-- Decorative candlesticks right -->
  <rect x="800" y="160" width="12" height="140" rx="2" fill="#818cf8" opacity="0.5"/>
  <rect x="795" y="190" width="22" height="4" rx="1" fill="#818cf8" opacity="0.5"/>
  <rect x="840" y="200" width="12" height="100" rx="2" fill="#fbbf24" opacity="0.4"/>
  <rect x="835" y="230" width="22" height="4" rx="1" fill="#fbbf24" opacity="0.4"/>
  <rect x="880" y="150" width="12" height="150" rx="2" fill="#2dd4bf" opacity="0.3"/>
  <rect x="875" y="180" width="22" height="4" rx="1" fill="#2dd4bf" opacity="0.3"/>
  
  <!-- Neural network dots and lines -->
  <circle cx="350" cy="100" r="4" fill="#818cf8" opacity="0.5"/>
  <circle cx="400" cy="80" r="3" fill="#2dd4bf" opacity="0.4"/>
  <circle cx="450" cy="110" r="5" fill="#f472b6" opacity="0.3"/>
  <circle cx="600" cy="90" r="4" fill="#fbbf24" opacity="0.4"/>
  <circle cx="650" cy="120" r="3" fill="#818cf8" opacity="0.3"/>
  <circle cx="700" cy="85" r="4" fill="#2dd4bf" opacity="0.4"/>
  
  <line x1="350" y1="100" x2="400" y2="80" stroke="#818cf8" stroke-width="1" opacity="0.3"/>
  <line x1="400" y1="80" x2="450" y2="110" stroke="#2dd4bf" stroke-width="1" opacity="0.3"/>
  <line x1="450" y1="110" x2="600" y2="90" stroke="#f472b6" stroke-width="1" opacity="0.2"/>
  <line x1="600" y1="90" x2="650" y2="120" stroke="#fbbf24" stroke-width="1" opacity="0.3"/>
  <line x1="650" y1="120" x2="700" y2="85" stroke="#818cf8" stroke-width="1" opacity="0.3"/>
  
  <!-- Title -->
  <text x="512" y="185" text-anchor="middle" font-family="sans-serif" font-size="52" font-weight="bold" fill="#e2e8f0">Vibe Trading</text>
  
  <!-- Subtitle -->
  <text x="512" y="235" text-anchor="middle" font-family="sans-serif" font-size="24" fill="#94a3b8">港大开源量化交易 Agent × OpenClaw</text>
  
  <!-- Badge pills -->
  <rect x="280" y="290" width="90" height="32" rx="16" fill="#2dd4bf" fill-opacity="0.15" stroke="#2dd4bf" stroke-opacity="0.4"/>
  <text x="325" y="311" text-anchor="middle" font-family="sans-serif" font-size="14" fill="#2dd4bf">A股</text>
  
  <rect x="385" y="290" width="90" height="32" rx="16" fill="#818cf8" fill-opacity="0.15" stroke="#818cf8" stroke-opacity="0.4"/>
  <text x="430" y="311" text-anchor="middle" font-family="sans-serif" font-size="14" fill="#818cf8">港股</text>
  
  <rect x="490" y="290" width="90" height="32" rx="16" fill="#f472b6" fill-opacity="0.15" stroke="#f472b6" stroke-opacity="0.4"/>
  <text x="535" y="311" text-anchor="middle" font-family="sans-serif" font-size="14" fill="#f472b6">美股</text>
  
  <rect x="595" y="290" width="120" height="32" rx="16" fill="#fbbf24" fill-opacity="0.15" stroke="#fbbf24" stroke-opacity="0.4"/>
  <text x="655" y="311" text-anchor="middle" font-family="sans-serif" font-size="14" fill="#fbbf24">加密货币</text>
  
  <!-- Bottom line -->
  <text x="512" y="370" text-anchor="middle" font-family="sans-serif" font-size="16" fill="#64748b">HKUDS · 36 MCP Tools · 29 Swarm Presets · 452 Alpha Factors</text>
</svg>
